<svg width="128" height="128" viewBox="0 0 128 128" fill="none" xmlns="http://www.w3.org/2000/svg">
<g clip-path="url(#clip0_882_6)">
<rect width="128" height="128" fill="none"/>
<path fill-rule="evenodd" clip-rule="evenodd" d="M109.261 109.26C98.7859 119.737 85.0026 126.257 70.2592 127.71C55.5159 129.163 40.7249 125.459 28.4067 117.229C16.0885 108.998 7.00529 96.7512 2.70496 82.5743C-1.59537 68.3975 -0.846743 53.168 4.82327 39.4813C10.4933 25.7945 20.7338 14.4973 33.7998 7.51474C46.8659 0.5322 61.9489 -1.70359 76.4786 1.18835C91.0084 4.0803 104.086 11.921 113.482 23.3744C122.879 34.8278 128.013 49.1852 128.011 64C128.024 72.4078 126.374 80.7352 123.156 88.5029C119.938 96.2705 115.216 103.325 109.261 109.26ZM77.698 58.0416C73.5076 56.7818 69.1745 56.0573 64.8022 55.8854C59.7755 55.7658 54.7664 56.5237 50.0001 58.125C49.8278 58.1766 49.6691 58.266 49.5358 58.3868C49.4024 58.5075 49.2977 58.6565 49.2293 58.8229C49.0232 59.3898 48.9277 59.9909 48.948 60.5937C48.9741 61.2918 49.0437 61.9876 49.1563 62.677C49.5938 65.802 50.1251 69.7604 46.6355 71.0104L46.4063 71.0833L33.9063 74.4583H33.7813C32.9446 74.6105 32.0829 74.549 31.2762 74.2795C30.4696 74.01 29.744 73.5413 29.1668 72.9166C27.8258 71.4661 26.8665 69.705 26.3751 67.7916C25.7378 65.4013 25.8913 62.8688 26.8126 60.5729C27.6582 58.4238 28.8013 56.4041 30.2084 54.5729C32.2776 51.7736 34.9702 49.4947 38.073 47.9166C41.4844 46.2109 45.1008 44.9506 48.8334 44.1666L49.1355 44.0937C51.0418 43.75 53.1251 43.2083 55.2918 42.8854C64.0432 41.662 72.9517 42.2254 81.4793 44.5416C88.6355 46.625 95.0209 50.1979 98.9793 55.6875C101.202 58.5221 102.287 62.0845 102.021 65.677C101.797 67.4042 101.232 69.0697 100.359 70.577C99.4865 72.0843 98.3236 73.4036 96.9376 74.4583C96.7611 74.6135 96.5482 74.7216 96.3188 74.7726C96.0893 74.8236 95.8507 74.8158 95.6251 74.75L81.8751 71.2291C81.1422 71.1767 80.4397 70.9153 79.8507 70.476C79.2618 70.0366 78.8112 69.4376 78.5522 68.75C78.111 67.4054 78.0319 65.9682 78.323 64.5833C78.3698 64.0241 78.4463 63.4677 78.5522 62.9166C78.8647 60.9479 79.2084 58.6875 77.6251 58L77.698 58.0416Z" fill="#FF3B30"/>
</g>
<defs>
<clipPath id="clip0_882_6">
<rect width="128" height="128" fill="white"/>
</clipPath>
</defs>
</svg>
