<svg width="128" height="128" viewBox="0 0 128 128" fill="none" xmlns="http://www.w3.org/2000/svg">
<g clip-path="url(#clip0_884_2)">
<rect width="128" height="128" rx="64" fill="white"/>
<path fill-rule="evenodd" clip-rule="evenodd" d="M109.26 109.26C98.7858 119.737 85.0024 126.257 70.2591 127.71C55.5158 129.163 40.7248 125.459 28.4066 117.229C16.0883 108.998 7.00516 96.7512 2.70484 82.5743C-1.59549 68.3975 -0.846866 53.168 4.82315 39.4813C10.4932 25.7945 20.7337 14.4973 33.7997 7.51474C46.8657 0.5322 61.9487 -1.70359 76.4785 1.18835C91.0082 4.0803 104.086 11.921 113.482 23.3744C122.879 34.8278 128.013 49.1852 128.01 64C128.024 72.4078 126.374 80.7352 123.156 88.5029C119.938 96.2705 115.216 103.325 109.26 109.26ZM77.6979 58.0416C73.5074 56.7818 69.1744 56.0573 64.8021 55.8854C59.7754 55.7658 54.7663 56.5237 50 58.125C49.8276 58.1766 49.669 58.266 49.5356 58.3868C49.4023 58.5075 49.2976 58.6565 49.2291 58.8229C49.0231 59.3898 48.9276 59.9909 48.9479 60.5937C48.974 61.2918 49.0436 61.9876 49.1562 62.677C49.5937 65.802 50.125 69.7604 46.6354 71.0104L46.4062 71.0833L33.9062 74.4583H33.7812C32.9445 74.6105 32.0828 74.549 31.2761 74.2795C30.4695 74.01 29.7439 73.5413 29.1666 72.9166C27.8257 71.4661 26.8664 69.705 26.375 67.7916C25.7377 65.4013 25.8912 62.8688 26.8125 60.5729C27.6581 58.4238 28.8012 56.4041 30.2083 54.5729C32.2775 51.7736 34.9701 49.4947 38.0729 47.9166C41.4843 46.2109 45.1007 44.9506 48.8333 44.1666L49.1354 44.0937C51.0416 43.75 53.125 43.2083 55.2916 42.8854C64.043 41.662 72.9516 42.2254 81.4791 44.5416C88.6354 46.625 95.0208 50.1979 98.9791 55.6875C101.202 58.5221 102.287 62.0845 102.021 65.677C101.796 67.4042 101.232 69.0697 100.359 70.577C99.4864 72.0843 98.3235 73.4036 96.9375 74.4583C96.7609 74.6135 96.5481 74.7216 96.3187 74.7726C96.0892 74.8236 95.8506 74.8158 95.625 74.75L81.875 71.2291C81.1421 71.1767 80.4395 70.9153 79.8506 70.476C79.2617 70.0366 78.811 69.4376 78.5521 68.75C78.1109 67.4054 78.0318 65.9682 78.3229 64.5833C78.3697 64.0241 78.4462 63.4677 78.5521 62.9166C78.8646 60.9479 79.2083 58.6875 77.625 58L77.6979 58.0416Z" fill="#FF3B30"/>
</g>
<defs>
<clipPath id="clip0_884_2">
<rect width="128" height="128" rx="64" fill="white"/>
</clipPath>
</defs>
</svg>
